<svg viewBox="0 0 94 140" fill="none" xmlns="http://www.w3.org/2000/svg">
<path d="M94 53.9216C94 83.7016 61.9928 125.294 46.231 140C30.6223 125.686 0 83.7016 0 53.9216C0 24.1415 21.0426 0 47 0C72.9574 0 94 24.1415 94 53.9216Z" fill="#EF4444"/>
<path d="M25.6861 24.5C17.3428 24.5 10.575 31.1625 10.575 39.366C10.575 46.3911 15.5345 52.2983 22.1948 53.8393L19.6882 88.2396C19.5092 90.5662 21.6398 92.4849 24.4149 92.4849H26.9394C29.7145 92.4849 31.8272 90.5813 31.6661 88.2396L29.1595 53.8393C35.8199 52.2832 40.7793 46.4062 40.7793 39.366C40.7972 31.1625 34.0295 24.5 25.6861 24.5ZM76.4623 24.5L72.2727 45.7415H69.1216L67.0268 24.5H64.932L62.8372 45.7415H59.6861L55.4786 24.5H53.3838V52.117C53.3838 53.2954 54.5118 54.2472 55.9083 54.2472H62.4613L59.9905 88.2547C59.8114 90.5813 61.942 92.5 64.7172 92.5H67.2417C70.0168 92.5 72.1295 90.5964 71.9684 88.2547L69.4976 54.2472H76.0505C77.447 54.2472 78.575 53.2954 78.575 52.117V24.5H76.4623Z" fill="white"/>
</svg>
